<?xml version="1.0" standalone="no"?>
<!DOCTYPE svg PUBLIC "-//W3C//DTD SVG 20010904//EN"
 "http://www.w3.org/TR/2001/REC-SVG-20010904/DTD/svg10.dtd">
<svg version="1.0" xmlns="http://www.w3.org/2000/svg"
 width="160.000000pt" height="160.000000pt" viewBox="0 0 160.000000 160.000000"
 preserveAspectRatio="xMidYMid meet">
<metadata>
Created by potrace 1.14, written by Peter Selinger 2001-2017
</metadata>
<g transform="translate(0.000000,160.000000) scale(0.100000,-0.100000)"
fill="#000000" stroke="none">
<path d="M894 1295 c-38 -20 -71 -41 -75 -47 -4 -6 -42 -13 -86 -15 -124 -6
-223 -60 -345 -186 -40 -41 -61 -73 -68 -101 -6 -23 -15 -52 -20 -66 -9 -23
-30 -180 -30 -222 0 -10 9 -22 20 -28 16 -8 33 -4 83 19 95 44 297 88 297 63
0 -21 -163 -158 -227 -191 -48 -24 -53 -41 -23 -73 16 -17 32 -22 78 -22 72 0
172 12 240 29 l52 13 7 -26 c7 -29 -4 -310 -16 -389 l-7 -53 33 0 c24 0 33 5
34 18 0 9 3 26 6 37 3 11 7 117 8 235 l3 215 26 16 c24 14 66 57 66 66 0 3 -6
10 -13 18 -11 10 -31 4 -113 -36 -59 -28 -119 -50 -149 -54 -52 -6 -87 -12
-120 -22 -11 -3 7 19 40 48 103 94 109 100 137 142 33 49 36 87 9 104 -38 24
-246 -6 -338 -47 l-66 -30 7 48 c19 135 38 180 109 249 69 68 136 111 214 139
48 16 60 17 130 5 141 -24 216 -76 268 -187 39 -83 90 -260 100 -344 9 -75 12
-436 6 -538 l-6 -82 31 0 c38 0 42 10 42 112 2 322 3 328 26 353 12 13 33 47
46 77 14 29 27 55 30 58 10 10 30 77 30 101 0 26 -37 69 -58 69 -15 0 -16 -5
8 63 23 65 24 86 7 108 -17 22 -71 33 -96 19 -25 -13 -26 -8 -7 28 7 15 16 44
19 66 12 77 -37 119 -126 108 -38 -4 -38 -4 -30 24 35 137 -49 184 -193 109z
m136 -54 c0 -16 -4 -41 -10 -55 l-9 -25 -53 24 c-29 14 -60 25 -67 25 -40 0
70 59 112 60 23 0 27 -4 27 -29z m141 -141 c25 0 24 -23 -3 -80 -15 -32 -22
-40 -25 -27 -3 9 -9 17 -14 17 -5 0 -9 9 -9 20 0 11 -6 23 -14 26 -8 3 -13 12
-12 20 3 20 27 35 44 29 8 -3 22 -5 33 -5z m109 -209 c0 -12 -50 -100 -60
-106 -8 -5 -30 54 -30 82 0 12 42 31 73 32 9 1 17 -3 17 -8z m21 -218 c-10
-35 -54 -109 -57 -97 -1 5 -4 30 -7 56 -4 44 -2 48 22 57 44 16 50 14 42 -16z"/>
<path d="M614 898 c1 -17 14 -29 50 -46 53 -25 76 -23 76 6 0 12 -16 26 -44
40 -57 29 -84 29 -82 0z"/>
<path d="M433 874 c-70 -59 -48 -103 23 -49 44 34 61 64 43 76 -20 12 -20 12
-66 -27z"/>
</g>
</svg>
